<svg width="74" height="50" viewBox="0 0 74 50" fill="none" xmlns="http://www.w3.org/2000/svg">
<path d="M12 41V9C12 4.02944 16.0294 0 21 0H53C57.9706 0 62 4.02944 62 9V41C62 45.9706 57.9706 50 53 50H21C16.0294 50 12 45.9706 12 41Z" fill="url(#paint0_linear_780_147)"/>
<path d="M67 9.1837C68.9048 8.64756 72.3143 8.96924 70.7143 14.5452C68.7143 21.5151 68.7143 25 73 25" stroke="#1E923C" stroke-width="2" stroke-linecap="round"/>
<path d="M67 40.8163C68.9048 41.3524 72.3143 41.0308 70.7143 35.4548C68.7143 28.4849 68.7143 25 73 25" stroke="#1E923C" stroke-width="2" stroke-linecap="round"/>
<path d="M7.27095 8.22111C7.80257 8.37075 8.11223 8.92302 7.96259 9.45465C7.81295 9.98628 7.26068 10.2959 6.72905 10.1463L7 9.1837L7.27095 8.22111ZM3.28571 14.5452L4.24692 14.2693L3.28571 14.5452ZM7 9.1837L6.72905 10.1463C5.88451 9.90858 4.96262 9.94693 4.4522 10.3541C4.04927 10.6756 3.48171 11.6026 4.24692 14.2693L3.28571 14.5452L2.3245 14.821C1.48971 11.9118 1.82692 9.89003 3.20494 8.79069C4.47548 7.7771 6.21073 7.92268 7.27095 8.22111L7 9.1837ZM3.28571 14.5452L4.24692 14.2693C4.7516 16.0281 5.13846 17.5951 5.36182 18.9573C5.5836 20.3099 5.65509 21.5219 5.48682 22.5481C5.31533 23.5939 4.882 24.5096 4.05269 25.1418C3.24247 25.7595 2.19235 26 1 26V25V24C1.95051 24 2.50753 23.8049 2.84017 23.5513C3.15372 23.3123 3.39895 22.9211 3.51318 22.2245C3.63063 21.5082 3.59497 20.5421 3.38818 19.281C3.18297 18.0295 2.81983 16.5472 2.3245 14.821L3.28571 14.5452Z" fill="#1E923C"/>
<path d="M7 40.8163C5.09524 41.3524 1.68571 41.0308 3.28571 35.4548C5.28571 28.4849 5.28571 25 1 25" stroke="#1E923C" stroke-width="2" stroke-linecap="round"/>
<circle cx="23" cy="9" r="4" fill="white"/>
<circle cx="23" cy="25" r="4" fill="white"/>
<circle cx="23" cy="41" r="4" fill="white"/>
<defs>
<linearGradient id="paint0_linear_780_147" x1="17.6818" y1="1.5" x2="59.8782" y2="29.2515" gradientUnits="userSpaceOnUse">
<stop stop-color="#1C963C"/>
<stop offset="1" stop-color="#1C963C"/>
</linearGradient>
</defs>
</svg>
